<svg width="311" height="80" viewBox="0 0 311 80" fill="none" xmlns="http://www.w3.org/2000/svg">
<path d="M7.78998 33.1357C4.62127 33.3669 2.00342 36.0355 1.95483 39.2555L1.95423 39.1648V39.3462L1.95483 39.2555C2.00322 42.4756 4.62107 45.1441 7.78998 45.3753V33.1357ZM9.88167 33.1343V45.3765C13.1692 45.1556 15.7174 42.5127 15.7174 39.346V39.1646C15.7174 35.9981 13.1692 33.3551 9.88167 33.1343ZM7.78998 30.0034C7.78998 28.5116 9.88167 28.4681 9.88167 30.0034C9.88167 30.4707 9.88167 31.1768 9.88167 31.1768C14.1956 31.4013 17.6716 34.8636 17.6716 39.1648V39.3462C17.6716 43.6472 14.1958 47.1094 9.88167 47.3341V48.5075C9.88167 49.8834 7.78998 49.8125 7.78998 48.5075C7.78998 47.9085 7.78998 47.3335 7.78998 47.3335C3.50862 47.1005 0.0961626 43.5389 0 39.3462C0 35.0069 3.50902 31.4127 7.78998 31.1774V30.0034Z" fill="white"/>
<path d="M77.5523 31.2858C77.5523 29.8563 79.644 29.8563 79.644 31.2858C79.644 31.9024 79.644 47.431 79.644 47.431C79.644 48.8404 77.5523 48.8404 77.5523 47.431C77.5523 46.9688 77.5523 40.4042 77.5523 40.4042H67.8524V47.431C67.8524 48.9712 65.7607 48.8841 65.7607 47.431C65.7607 47.054 65.7607 31.2858 65.7607 31.2858C65.7607 29.8563 67.8524 29.8128 67.8524 31.2858C67.8524 32.2618 67.8524 38.3125 67.8524 38.3125H77.5523V31.2858Z" fill="white"/>
<path d="M36.6571 37.5202C36.2866 38.363 36.1559 39.3368 36.3282 40.3116C36.7916 42.9349 39.2936 44.6861 41.9167 44.2233C44.54 43.7603 46.2908 41.2584 45.8274 38.6353C45.364 36.012 42.8619 34.2606 40.2388 34.7236" stroke="#F3716D" stroke-width="1.98184" stroke-miterlimit="3.8637" stroke-linecap="round"/>
<path d="M32.311 41.1596C32.111 40.1202 32.091 39.0432 32.2861 37.9387C33.1429 33.0872 37.7702 29.8485 42.6215 30.7046C47.4727 31.5608 50.7109 36.1875 49.8539 41.039C48.9969 45.8904 44.3698 49.1292 39.5184 48.273C38.1792 48.0367 36.9629 47.513 35.9217 46.7765" stroke="white" stroke-width="1.98184" stroke-miterlimit="3.8637" stroke-linecap="round"/>
<path d="M37.9275 26.7942C39.6485 26.3671 41.4823 26.3011 43.3415 26.6292C47.881 27.4303 51.4556 30.4867 53.1167 34.4425" stroke="#FFCD67" stroke-width="1.98184" stroke-miterlimit="3.8637" stroke-linecap="round"/>
<path d="M58.2412 39.2686C58.2558 40.3348 58.1764 41.4177 57.9841 42.5067C56.336 51.8373 47.4364 58.0664 38.1062 56.4201" stroke="#8781BD" stroke-width="1.98184" stroke-miterlimit="3.8637" stroke-linecap="round"/>
<path d="M31.3015 53.6114C25.9745 49.9122 22.9943 43.3511 24.1966 36.5444C25.8447 27.2138 34.7441 20.9847 44.0745 22.631C48.4674 23.4062 52.1724 25.789 54.6917 29.0674" stroke="#C63D96" stroke-width="1.98184" stroke-miterlimit="3.8637" stroke-linecap="round"/>
<path d="M53.9623 41.8978C52.826 47.957 47.5035 52.5421 41.1144 52.5421C33.8972 52.5421 28.0466 46.6915 28.0466 39.4743C28.0466 35.3871 29.9231 31.738 32.8614 29.3418" stroke="#11C098" stroke-width="1.98184" stroke-miterlimit="3.8637" stroke-linecap="round"/>
<path d="M108.266 30.4774H109.341L110.833 33.5642L112.185 30.4774H113.105L110.495 36.2607H109.576L110.321 34.622L108.266 30.4774ZM116.645 30.4774V32.7665H119.125V30.4774H120.009V36.2607H119.125V33.5989H116.645V36.2607H115.76V30.4774H116.645ZM127.209 36.2607V32.3676L123.307 36.5209V30.4774H124.192V34.3879L128.093 30.2347V36.2607H127.209ZM131.388 30.4774H132.263C132.656 30.4774 132.974 30.5092 133.217 30.5728C133.46 30.6364 133.674 30.7549 133.859 30.9283C134.165 31.2173 134.318 31.5988 134.318 32.0728C134.318 32.3445 134.26 32.5728 134.145 32.7578C134.041 32.937 133.896 33.07 133.711 33.1567C134.012 33.2318 134.26 33.3705 134.457 33.5729C134.711 33.8387 134.838 34.2 134.838 34.6567C134.838 35.0786 134.711 35.4255 134.457 35.6972C134.099 36.0729 133.558 36.2607 132.836 36.2607H131.388V30.4774ZM132.272 31.3098V32.9659H132.541C132.864 32.9659 133.104 32.8908 133.26 32.7405C133.411 32.596 133.486 32.3763 133.486 32.0815C133.486 31.8445 133.416 31.6595 133.278 31.5266C133.127 31.3821 132.893 31.3098 132.575 31.3098H132.272ZM132.272 33.6942V35.4284H132.81C133.208 35.4284 133.5 35.3532 133.685 35.2029C133.876 35.0526 133.971 34.8388 133.971 34.5613C133.971 34.3127 133.893 34.1104 133.737 33.9544C133.558 33.7809 133.255 33.6942 132.827 33.6942H132.272ZM141.05 30.4774V31.3098H138.743V32.7752H140.98V33.6075H138.743V35.4284H141.05V36.2607H137.859V30.4774H141.05ZM144.102 30.4774H145.376C145.908 30.4774 146.33 30.5815 146.642 30.7896C146.874 30.9457 147.05 31.1509 147.171 31.4052C147.298 31.6538 147.362 31.9168 147.362 32.1942C147.362 32.7145 147.174 33.1364 146.798 33.4601C146.446 33.7607 145.975 33.911 145.385 33.911H144.986V36.2607H144.102V30.4774ZM144.986 31.2925V33.096H145.385C145.755 33.096 146.035 33.015 146.226 32.8532C146.417 32.6856 146.512 32.463 146.512 32.1856C146.512 32.0873 146.498 31.9948 146.469 31.9081C146.446 31.8214 146.397 31.7289 146.322 31.6306C146.252 31.5266 146.137 31.4457 145.975 31.3879C145.813 31.3243 145.613 31.2925 145.376 31.2925H144.986ZM150.399 31.7867L149.818 31.2231C150.032 30.9399 150.28 30.7318 150.563 30.5988C150.852 30.4543 151.202 30.3821 151.613 30.3821C152.191 30.3821 152.639 30.5352 152.956 30.8416C153.234 31.1133 153.373 31.4514 153.373 31.8561C153.373 32.1335 153.309 32.3734 153.182 32.5757C153.061 32.7838 152.887 32.9515 152.662 33.0786C152.98 33.1596 153.24 33.3301 153.442 33.5902C153.639 33.8387 153.737 34.1653 153.737 34.57C153.737 35.0902 153.543 35.5208 153.156 35.8619C152.763 36.1972 152.243 36.3648 151.595 36.3648C151.046 36.3648 150.572 36.2145 150.173 35.9139C149.861 35.6711 149.615 35.359 149.436 34.9775L150.217 34.5786C150.332 34.8734 150.511 35.1075 150.754 35.281C151.008 35.4602 151.326 35.5498 151.708 35.5498C152.089 35.5498 152.384 35.4457 152.592 35.2376C152.777 35.0526 152.87 34.8156 152.87 34.5266C152.87 34.226 152.757 34.0006 152.532 33.8503C152.318 33.7 151.968 33.6249 151.482 33.6249H150.962V32.7925H151.43C151.8 32.7925 152.078 32.7145 152.263 32.5584C152.436 32.4139 152.523 32.2173 152.523 31.9688C152.523 31.7087 152.43 31.5092 152.245 31.3705C152.095 31.2549 151.873 31.1971 151.578 31.1971C151.3 31.1971 151.066 31.252 150.876 31.3618C150.691 31.4659 150.532 31.6075 150.399 31.7867ZM160.659 36.2607V32.3676L156.757 36.5209V30.4774H157.641V34.3879L161.543 30.2347V36.2607H160.659ZM167.768 31.3098H166.441V36.2607H165.557V31.3098H164.23V30.4774H167.768V31.3098ZM173.644 30.4774V31.3098H171.338V32.7752H173.575V33.6075H171.338V35.4284H173.644V36.2607H170.453V30.4774H173.644ZM179.627 31.3098H178.3V36.2607H177.416V31.3098H176.089V30.4774H179.627V31.3098ZM185.602 30.4774H186.677L188.169 33.5642L189.521 30.4774H190.44L187.831 36.2607H186.911L187.657 34.622L185.602 30.4774ZM197.028 36.2607V30.4774H199.924V31.3098H197.912V32.8098H198.484C199.103 32.8098 199.585 32.963 199.932 33.2694C200.296 33.5873 200.478 34.0122 200.478 34.544C200.478 34.8214 200.415 35.0873 200.288 35.3417C200.166 35.5902 199.99 35.7925 199.759 35.9486C199.447 36.1567 199.025 36.2607 198.493 36.2607H197.028ZM197.912 33.6422V35.4284H198.45C199.224 35.4284 199.611 35.1365 199.611 34.5526C199.611 34.2983 199.525 34.0844 199.351 33.911C199.184 33.7318 198.889 33.6422 198.467 33.6422H197.912ZM206.69 30.4774V31.3098H204.383V32.7752H206.62V33.6075H204.383V35.4284H206.69V36.2607H203.499V30.4774H206.69ZM210.323 31.2318C210.895 30.6595 211.612 30.3734 212.473 30.3734C213.334 30.3734 214.051 30.6595 214.623 31.2318C215.196 31.804 215.482 32.5179 215.482 33.3734C215.482 34.2289 215.196 34.9428 214.623 35.5151C214.051 36.0873 213.334 36.3735 212.473 36.3735C211.612 36.3735 210.895 36.0873 210.323 35.5151C209.751 34.9428 209.464 34.2289 209.464 33.3734C209.464 32.5179 209.751 31.804 210.323 31.2318ZM210.947 34.9515C211.346 35.3561 211.855 35.5584 212.473 35.5584C213.092 35.5584 213.6 35.3561 213.999 34.9515C214.398 34.5411 214.597 34.0151 214.597 33.3734C214.597 32.7318 214.398 32.2087 213.999 31.804C213.6 31.3936 213.092 31.1884 212.473 31.1884C211.855 31.1884 211.346 31.3936 210.947 31.804C210.548 32.2087 210.349 32.7318 210.349 33.3734C210.349 34.0151 210.548 34.5411 210.947 34.9515ZM218.5 36.2607V30.4774H221.395V31.3098H219.384V36.2607H218.5ZM224.116 30.4774H225.39C225.922 30.4774 226.344 30.5815 226.656 30.7896C226.887 30.9457 227.064 31.1509 227.185 31.4052C227.312 31.6538 227.376 31.9168 227.376 32.1942C227.376 32.7145 227.188 33.1364 226.812 33.4601C226.46 33.7607 225.989 33.911 225.399 33.911H225V36.2607H224.116V30.4774ZM225 31.2925V33.096H225.399C225.769 33.096 226.049 33.015 226.24 32.8532C226.431 32.6856 226.526 32.463 226.526 32.1856C226.526 32.0873 226.512 31.9948 226.483 31.9081C226.46 31.8214 226.411 31.7289 226.335 31.6306C226.266 31.5266 226.15 31.4457 225.989 31.3879C225.827 31.3243 225.627 31.2925 225.39 31.2925H225ZM233.933 36.2607L233.326 34.8648H230.855L230.222 36.2607H229.268L232.146 30.1393L234.886 36.2607H233.933ZM231.219 34.0324H232.97L232.112 32.0728L231.219 34.0324ZM238.266 30.4774H241.873V35.4284H242.532V37.5613H241.699V36.2607H237.971V37.5613H237.138V35.4284C237.335 35.4341 237.514 35.3648 237.676 35.2203C237.838 35.07 237.965 34.8792 238.058 34.648C238.196 34.2954 238.266 33.7896 238.266 33.1306V30.4774ZM239.15 31.3098V33.1306C239.15 33.8532 239.084 34.3908 238.951 34.7434C238.847 35.0093 238.696 35.2376 238.5 35.4284H240.988V31.3098H239.15ZM244.616 30.4774H245.691L247.182 33.5642L248.535 30.4774H249.454L246.844 36.2607H245.925L246.671 34.622L244.616 30.4774Z" fill="white"/>
<path d="M111.014 48.8398V48.0248H110.858C110.003 48.0248 109.361 47.8167 108.933 47.4005C108.505 46.9786 108.292 46.4352 108.292 45.7704C108.292 45.1057 108.505 44.5652 108.933 44.149C109.361 43.7271 110.003 43.5161 110.858 43.5161H111.014V42.8224H111.899V43.5161H112.055C112.91 43.5161 113.552 43.7271 113.979 44.149C114.407 44.5652 114.621 45.1057 114.621 45.7704C114.621 46.4352 114.407 46.9786 113.979 47.4005C113.552 47.8167 112.91 48.0248 112.055 48.0248H111.899V48.8398H111.014ZM111.014 47.2098V44.3311H110.841C110.286 44.3311 109.87 44.4641 109.592 44.73C109.315 44.9901 109.176 45.3369 109.176 45.7704C109.176 46.204 109.315 46.5537 109.592 46.8196C109.87 47.0797 110.286 47.2098 110.841 47.2098H111.014ZM111.899 44.3311V47.2098H112.072C112.627 47.2098 113.043 47.0797 113.321 46.8196C113.598 46.5537 113.737 46.204 113.737 45.7704C113.737 45.3369 113.598 44.9901 113.321 44.73C113.043 44.4641 112.627 44.3311 112.072 44.3311H111.899ZM121.129 48.8398L120.522 47.4439H118.051L117.418 48.8398H116.464L119.343 42.7184L122.083 48.8398H121.129ZM118.415 46.6115H120.167L119.308 44.6519L118.415 46.6115ZM125.605 43.0565V45.3629L127.843 43.0565H129.004L126.395 45.6751L129.022 48.8398H127.843L125.779 46.2733L125.605 46.4468V48.8398H124.721V43.0565H125.605ZM131.067 43.0565H132.143L133.634 46.1433L134.987 43.0565H135.906L133.296 48.8398H132.377L133.122 47.2011L131.067 43.0565ZM138.752 43.0565H142.446V48.8398H141.562V43.8889H139.637V46.7676C139.637 47.045 139.628 47.2705 139.611 47.4439C139.593 47.6115 139.539 47.8023 139.446 48.0161C139.359 48.23 139.232 48.4063 139.065 48.545C138.781 48.7763 138.432 48.8919 138.015 48.8919C137.894 48.8919 137.764 48.8745 137.625 48.8398V48.0248C137.741 48.0595 137.848 48.0768 137.946 48.0768C138.16 48.0768 138.333 48.0104 138.466 47.8774C138.559 47.7907 138.625 47.6606 138.666 47.4872C138.712 47.308 138.738 47.1606 138.744 47.045C138.749 46.9294 138.752 46.7502 138.752 46.5074V43.0565ZM148.675 43.8889H147.348V48.8398H146.464V43.8889H145.137V43.0565H148.675V43.8889ZM154.551 43.0565V43.8889H152.245V45.3543H154.482V46.1866H152.245V48.0075H154.551V48.8398H151.361V43.0565H154.551ZM160.534 43.8889H159.207V48.8398H158.323V43.8889H156.996V43.0565H160.534V43.8889ZM167.732 43.8109C168.304 43.2386 169.021 42.9525 169.882 42.9525C170.743 42.9525 171.46 43.2386 172.032 43.8109C172.605 44.3831 172.891 45.097 172.891 45.9525C172.891 46.808 172.605 47.5219 172.032 48.0942C171.46 48.6664 170.743 48.9526 169.882 48.9526C169.021 48.9526 168.304 48.6664 167.732 48.0942C167.16 47.5219 166.873 46.808 166.873 45.9525C166.873 45.097 167.16 44.3831 167.732 43.8109ZM168.356 47.5306C168.755 47.9352 169.264 48.1375 169.882 48.1375C170.501 48.1375 171.009 47.9352 171.408 47.5306C171.807 47.1202 172.006 46.5942 172.006 45.9525C172.006 45.3109 171.807 44.7878 171.408 44.3831C171.009 43.9727 170.501 43.7675 169.882 43.7675C169.264 43.7675 168.755 43.9727 168.356 44.3831C167.957 44.7878 167.758 45.3109 167.758 45.9525C167.758 46.5942 167.957 47.1202 168.356 47.5306ZM175.909 43.0565H177.183C177.715 43.0565 178.137 43.1606 178.449 43.3687C178.68 43.5248 178.857 43.73 178.978 43.9843C179.105 44.2329 179.169 44.4959 179.169 44.7733C179.169 45.2936 178.981 45.7155 178.605 46.0392C178.253 46.3398 177.781 46.4901 177.192 46.4901H176.793V48.8398H175.909V43.0565ZM176.793 43.8716V45.6751H177.192C177.562 45.6751 177.842 45.5941 178.033 45.4323C178.224 45.2647 178.319 45.0421 178.319 44.7647C178.319 44.6664 178.305 44.5739 178.276 44.4872C178.253 44.4005 178.203 44.308 178.128 44.2097C178.059 44.1057 177.943 44.0248 177.781 43.967C177.62 43.9034 177.42 43.8716 177.183 43.8716H176.793ZM181.982 48.8398V43.0565H184.878V43.8889H182.866V48.8398H181.982ZM190.884 48.8398L190.277 47.4439H187.806L187.173 48.8398H186.22L189.098 42.7184L191.838 48.8398H190.884ZM188.171 46.6115H189.922L189.064 44.6519L188.171 46.6115ZM195.361 43.0565V45.3456H197.84V43.0565H198.725V48.8398H197.84V46.178H195.361V48.8398H194.476V43.0565H195.361ZM205.925 48.8398V44.9467L202.023 49.1V43.0565H202.907V46.967L206.809 42.8138V48.8398H205.925ZM210.598 44.3658L210.017 43.8022C210.23 43.519 210.479 43.3109 210.762 43.1779C211.051 43.0334 211.401 42.9612 211.811 42.9612C212.389 42.9612 212.837 43.1143 213.155 43.4207C213.433 43.6924 213.572 44.0305 213.572 44.4352C213.572 44.7126 213.508 44.9525 213.381 45.1548C213.259 45.3629 213.086 45.5306 212.861 45.6577C213.178 45.7387 213.439 45.9092 213.641 46.1693C213.837 46.4179 213.936 46.7444 213.936 47.1491C213.936 47.6693 213.742 48.1 213.355 48.441C212.962 48.7763 212.441 48.9439 211.794 48.9439C211.245 48.9439 210.771 48.7936 210.372 48.493C210.06 48.2502 209.814 47.9381 209.635 47.5566L210.415 47.1577C210.531 47.4525 210.71 47.6867 210.953 47.8601C211.207 48.0393 211.525 48.1289 211.907 48.1289C212.288 48.1289 212.583 48.0248 212.791 47.8167C212.976 47.6317 213.069 47.3947 213.069 47.1057C213.069 46.8051 212.956 46.5797 212.731 46.4294C212.517 46.2791 212.167 46.204 211.681 46.204H211.161V45.3716H211.629C211.999 45.3716 212.277 45.2936 212.462 45.1375C212.635 44.993 212.722 44.7964 212.722 44.5479C212.722 44.2878 212.629 44.0883 212.444 43.9496C212.294 43.834 212.072 43.7762 211.777 43.7762C211.499 43.7762 211.265 43.8311 211.074 43.9409C210.889 44.045 210.73 44.1866 210.598 44.3658ZM220.775 48.8398L220.168 47.4439H217.697L217.064 48.8398H216.111L218.989 42.7184L221.729 48.8398H220.775ZM218.061 46.6115H219.813L218.955 44.6519L218.061 46.6115ZM224.367 48.8398V43.0565H225.252V48.0075H227.645V43.0565H228.529V48.0075H229.275V50.1404H228.442V48.8398H224.367ZM235.9 48.8398V44.9467L231.999 49.1V43.0565H232.883V46.967L236.785 42.8138V48.8398H235.9ZM240.66 43.8109C241.232 43.2386 241.949 42.9525 242.81 42.9525C243.671 42.9525 244.388 43.2386 244.96 43.8109C245.533 44.3831 245.819 45.097 245.819 45.9525C245.819 46.808 245.533 47.5219 244.96 48.0942C244.388 48.6664 243.671 48.9526 242.81 48.9526C241.949 48.9526 241.232 48.6664 240.66 48.0942C240.088 47.5219 239.801 46.808 239.801 45.9525C239.801 45.097 240.088 44.3831 240.66 43.8109ZM241.284 47.5306C241.683 47.9352 242.192 48.1375 242.81 48.1375C243.429 48.1375 243.937 47.9352 244.336 47.5306C244.735 47.1202 244.934 46.5942 244.934 45.9525C244.934 45.3109 244.735 44.7878 244.336 44.3831C243.937 43.9727 243.429 43.7675 242.81 43.7675C242.192 43.7675 241.683 43.9727 241.284 44.3831C240.885 44.7878 240.686 45.3109 240.686 45.9525C240.686 46.5942 240.885 47.1202 241.284 47.5306ZM249.721 43.0565V45.3456H252.201V43.0565H253.085V48.8398H252.201V46.178H249.721V48.8398H248.837V43.0565H249.721ZM260.285 48.8398V44.9467L256.383 49.1V43.0565H257.268V46.967L261.17 42.8138V48.8398H260.285ZM263.857 48.8398L265.678 45.8225L264.082 43.0565H265.071L266.198 45.0161L267.351 43.0565H268.339L266.675 45.8225L268.418 48.8398H267.429L266.163 46.6288L264.845 48.8398H263.857ZM275.92 43.0565V45.3456H278.4V43.0565H279.284V48.8398H278.4V46.178H275.92V48.8398H275.036V43.0565H275.92ZM286.588 48.8398L285.981 47.4439H283.51L282.877 48.8398H281.924L284.802 42.7184L287.542 48.8398H286.588ZM283.875 46.6115H285.626L284.768 44.6519L283.875 46.6115ZM289.183 43.0565H290.258L291.749 46.1433L293.102 43.0565H294.021L291.411 48.8398H290.492L291.238 47.2011L289.183 43.0565ZM297.561 43.0565V45.3629L299.799 43.0565H300.96L298.351 45.6751L300.978 48.8398H299.799L297.735 46.2733L297.561 46.4468V48.8398H296.677V43.0565H297.561ZM307.857 48.8398L307.25 47.4439H304.779L304.146 48.8398H303.192L306.071 42.7184L308.811 48.8398H307.857ZM305.143 46.6115H306.895L306.036 44.6519L305.143 46.6115Z" fill="white"/>
<rect x="93.1265" y="13.5264" width="1.3" height="52" fill="white" fill-opacity="0.75"/>
</svg>
