<svg xmlns="http://www.w3.org/2000/svg" width="32" height="33" viewBox="0 0 32 33" fill="none">
  <circle cx="16" cy="16.5459" r="16" fill="#3C4884"/>
  <path d="M16 10.8072C17.869 10.8072 18.0903 10.8142 18.8287 10.8478C19.2726 10.8533 19.7123 10.9348 20.1287 11.0888C20.4306 11.2053 20.7048 11.3836 20.9337 11.6125C21.1625 11.8413 21.3409 12.1155 21.4573 12.4174C21.6114 12.8338 21.6929 13.2735 21.6983 13.7174C21.7317 14.4557 21.739 14.677 21.739 16.5459C21.739 18.4148 21.732 18.6361 21.6983 19.3744C21.6929 19.8183 21.6114 20.258 21.4573 20.6744C21.3409 20.9763 21.1625 21.2505 20.9337 21.4793C20.7048 21.7082 20.4306 21.8865 20.1287 22.003C19.7123 22.157 19.2726 22.2385 18.8287 22.244C18.0907 22.2773 17.8693 22.2846 16 22.2846C14.1307 22.2846 13.9093 22.2776 13.1713 22.244C12.7274 22.2385 12.2877 22.157 11.8713 22.003C11.5694 21.8865 11.2952 21.7082 11.0663 21.4793C10.8375 21.2505 10.6591 20.9763 10.5427 20.6744C10.3886 20.258 10.3071 19.8183 10.3017 19.3744C10.2683 18.6361 10.261 18.4148 10.261 16.5459C10.261 14.677 10.268 14.4557 10.3017 13.7174C10.3071 13.2735 10.3886 12.8338 10.5427 12.4174C10.6591 12.1155 10.8375 11.8413 11.0663 11.6125C11.2952 11.3836 11.5694 11.2053 11.8713 11.0888C12.2877 10.9348 12.7274 10.8533 13.1713 10.8478C13.9097 10.8145 14.131 10.8072 16 10.8072ZM16 9.5459C14.1 9.5459 13.8607 9.5539 13.114 9.5879C12.533 9.59945 11.9582 9.70945 11.414 9.91321C10.9472 10.0891 10.5243 10.3647 10.175 10.7208C9.81853 11.0703 9.54266 11.4933 9.36667 11.9605C9.16289 12.5046 9.05289 13.0794 9.04133 13.6604C9.008 14.4063 9 14.6457 9 16.5456C9 18.4455 9.008 18.6848 9.042 19.4314C9.05356 20.0124 9.16356 20.5872 9.36733 21.1313C9.54314 21.5984 9.81877 22.0214 10.175 22.371C10.5245 22.7272 10.9476 23.0028 11.4147 23.1786C11.9589 23.3823 12.5337 23.4923 13.1147 23.5039C13.8613 23.5372 14.0997 23.5459 16.0007 23.5459C17.9017 23.5459 18.14 23.5379 18.8867 23.5039C19.4677 23.4923 20.0425 23.3823 20.5867 23.1786C21.0515 22.9984 21.4737 22.7232 21.8261 22.3706C22.1785 22.0179 22.4534 21.5956 22.6333 21.1307C22.8371 20.5865 22.9471 20.0117 22.9587 19.4308C22.992 18.6848 23 18.4455 23 16.5456C23 14.6457 22.992 14.4063 22.958 13.6597C22.9464 13.0787 22.8364 12.504 22.6327 11.9598C22.4569 11.4927 22.1812 11.0697 21.825 10.7202C21.4755 10.364 21.0524 10.0883 20.5853 9.91255C20.0411 9.70878 19.4663 9.59879 18.8853 9.58723C18.1393 9.5539 17.9 9.5459 16 9.5459Z" fill="#F6F6F6"/>
  <path d="M16.0014 12.9531C15.2904 12.9531 14.5955 13.1639 14.0043 13.5589C13.4132 13.9539 12.9524 14.5153 12.6804 15.1721C12.4083 15.8289 12.3371 16.5516 12.4758 17.2489C12.6145 17.9461 12.9569 18.5866 13.4596 19.0893C13.9623 19.592 14.6028 19.9344 15.3001 20.0731C15.9974 20.2117 16.7202 20.1406 17.377 19.8685C18.0339 19.5964 18.5953 19.1357 18.9903 18.5446C19.3852 17.9535 19.5961 17.2585 19.5961 16.5476C19.5961 15.5943 19.2174 14.68 18.5432 14.0059C17.8691 13.3318 16.9548 12.9531 16.0014 12.9531ZM16.0014 18.8808C15.5399 18.8808 15.0888 18.744 14.7051 18.4876C14.3214 18.2312 14.0223 17.8668 13.8457 17.4405C13.6691 17.0142 13.6229 16.545 13.7129 16.0924C13.8029 15.6398 14.0252 15.2241 14.3515 14.8978C14.6778 14.5715 15.0936 14.3493 15.5462 14.2592C15.9988 14.1692 16.468 14.2154 16.8943 14.392C17.3207 14.5686 17.6851 14.8677 17.9415 15.2514C18.1979 15.635 18.3347 16.0862 18.3347 16.5476C18.3347 17.1664 18.0889 17.7599 17.6513 18.1975C17.2137 18.635 16.6202 18.8808 16.0014 18.8808Z" fill="#F6F6F6"/>
  <path d="M19.7375 13.6496C20.2014 13.6496 20.5775 13.2736 20.5775 12.8097C20.5775 12.3458 20.2014 11.9697 19.7375 11.9697C19.2735 11.9697 18.8975 12.3458 18.8975 12.8097C18.8975 13.2736 19.2735 13.6496 19.7375 13.6496Z" fill="#F6F6F6"/>
</svg>