<svg width="32" height="33" viewBox="0 0 32 33" fill="none" xmlns="http://www.w3.org/2000/svg">
<circle cx="16" cy="16.5459" r="16" fill="#3C4884"/>
<g clip-path="url(#clip0_84_410)">
<path d="M22.1473 22.4962H22.3004V22.3431V17.1478C22.3004 16.0967 21.8829 15.0887 21.1397 14.3455C20.3965 13.6023 19.3885 13.1848 18.3374 13.1848C17.4561 13.1848 16.6856 13.5246 16.066 14.058V13.6842V13.5311H15.9129H14.5275H14.3744V13.6842V22.3431V22.4962H14.5275H15.9129H16.066V22.3431V17.1478C16.066 16.5454 16.3054 15.9677 16.7313 15.5417C17.1573 15.1157 17.735 14.8764 18.3374 14.8764C18.9398 14.8764 19.5175 15.1157 19.9435 15.5417C20.3695 15.9677 20.6088 16.5454 20.6088 17.1478V22.3431V22.4962H20.7619H22.1473ZM10.3713 13.5311H10.2181V13.6842V22.3431V22.4962H10.3713H11.7567H11.9098V22.3431V13.6842V13.5311H11.7567H10.3713ZM10.221 12.1028C10.4445 12.3263 10.7478 12.452 11.064 12.452C11.3802 12.452 11.6834 12.3263 11.907 12.1028C12.1305 11.8792 12.2562 11.576 12.2562 11.2598C12.2562 10.9436 12.1305 10.6403 11.907 10.4168C11.6834 10.1932 11.3802 10.0676 11.064 10.0676C10.7478 10.0676 10.4445 10.1932 10.221 10.4168C9.99738 10.6403 9.87178 10.9436 9.87178 11.2598C9.87178 11.576 9.99738 11.8792 10.221 12.1028Z" fill="#F6F6F6" stroke="#F6F6F6" stroke-width="0.30625"/>
</g>
<defs>
<clipPath id="clip0_84_410">
<rect width="14" height="14" fill="white" transform="translate(9 9.5459)"/>
</clipPath>
</defs>
</svg>
