<svg xmlns="http://www.w3.org/2000/svg" width="48" height="48" viewBox="0 0 48 48" fill="none">
  <path d="M9.19727 9.29297L13.8851 9.29297" stroke="#FFECE2" stroke-width="2" stroke-linecap="square" stroke-linejoin="round"/>
  <path d="M9.19727 15.1758L13.8851 15.1758" stroke="#FFECE2" stroke-width="2" stroke-linecap="square" stroke-linejoin="round"/>
  <path d="M9.19727 20.7236L11.8125 20.7236" stroke="#FFECE2" stroke-width="2" stroke-linecap="square" stroke-linejoin="round"/>
  <path d="M20.7188 25.4062V6.65625L16.0312 2.90625H2.90625V25.4062H20.7188Z" stroke="#FF7125" stroke-width="2" stroke-linecap="round" stroke-linejoin="round"/>
  <path d="M8.53125 8.53125H14.625" stroke="#FF7125" stroke-width="2" stroke-linecap="round" stroke-linejoin="round"/>
  <path d="M8.53125 14.1562H14.625" stroke="#FF7125" stroke-width="2" stroke-linecap="round" stroke-linejoin="round"/>
  <path d="M8.53125 19.7812H12.75" stroke="#FF7125" stroke-width="2" stroke-linecap="round" stroke-linejoin="round"/>
  <path d="M24.4688 34.7812C24.4687 36.1355 24.7355 37.4765 25.2537 38.7277C25.772 39.9788 26.5316 41.1157 27.4892 42.0733C28.4468 43.0309 29.5837 43.7905 30.8348 44.3088C32.086 44.827 33.427 45.0938 34.7812 45.0938C36.1355 45.0938 37.4765 44.827 38.7277 44.3088C39.9788 43.7905 41.1157 43.0309 42.0733 42.0733C43.0309 41.1157 43.7905 39.9788 44.3088 38.7277C44.827 37.4765 45.0938 36.1355 45.0938 34.7812C45.0938 33.427 44.827 32.086 44.3088 30.8348C43.7905 29.5837 43.0309 28.4468 42.0733 27.4892C41.1157 26.5316 39.9788 25.772 38.7277 25.2537C37.4765 24.7355 36.1355 24.4688 34.7812 24.4688C33.427 24.4688 32.086 24.7355 30.8348 25.2537C29.5837 25.772 28.4468 26.5316 27.4892 27.4892C26.5316 28.4468 25.772 29.5837 25.2537 30.8348C24.7355 32.086 24.4687 33.427 24.4688 34.7812Z" fill="#FFECE2" stroke="#FF7125" stroke-width="2" stroke-linecap="round" stroke-linejoin="round"/>
  <path d="M39.8829 42.5783C38.5902 43.3625 34.974 34.2101 34.974 34.2101V25.72V25.5726V24.8466C34.5283 24.4527 34.974 24.7767 34.974 24.7767V24.8466C35.1239 24.9791 35.3748 25.1928 35.7774 25.5275C37.3007 25.6596 39.1092 26.2675 40.7237 27.602C42.3529 28.9486 43.1179 30.3808 43.7068 32.118C43.7068 32.118 44.0082 33.3094 44.0665 34.09C44.211 36.0243 43.9961 37.2329 43.1275 38.9673C42.2786 40.6624 41.1757 41.7941 39.8829 42.5783Z" fill="white"/>
  <path d="M43.8094 15.9802C42.3615 13.7335 40.3728 11.8861 38.0257 10.6076C35.6785 9.32896 33.0478 8.66004 30.375 8.66211H27.4688" stroke="#FF7125" stroke-width="2" stroke-linecap="round" stroke-linejoin="round"/>
  <path d="M31.832 4.30273L27.4727 8.66211L31.832 13.0196" stroke="#FF7125" stroke-width="2" stroke-linecap="round" stroke-linejoin="round"/>
  <path d="M3.69556 31.5C5.14376 33.7456 7.13241 35.5917 9.47924 36.8693C11.8261 38.1469 14.456 38.815 17.1281 38.8125H20.0324" stroke="#FF7125" stroke-width="2" stroke-linecap="round" stroke-linejoin="round"/>
  <path d="M15.6748 43.1837L20.0323 38.8243L15.6748 34.4668" stroke="#FF7125" stroke-width="2" stroke-linecap="round" stroke-linejoin="round"/>
  <path d="M44.9213 32.9062L34.7812 34.7812V24.4688" stroke="#FF7125" stroke-width="2" stroke-linecap="round" stroke-linejoin="round"/>
  <path d="M34.7812 34.7812L39.4688 43.9669" stroke="#FF7125" stroke-width="2" stroke-linecap="round" stroke-linejoin="round"/>
</svg>