<svg xmlns="http://www.w3.org/2000/svg" width="48" height="48" viewBox="0 0 48 48" fill="none">
  <path d="M10.0215 15L27 15" stroke="#E5E9FF" stroke-width="2" stroke-linecap="square" stroke-linejoin="round"/>
  <path d="M10.0215 23.5615H21.0082" stroke="#E5E9FF" stroke-width="2" stroke-linecap="square" stroke-linejoin="round"/>
  <path d="M9.42761 32.0244H14.7725" stroke="#E5E9FF" stroke-width="2" stroke-linecap="square" stroke-linejoin="round"/>
  <path d="M35.1504 23.4003L38.0397 29.6253H43.6647C43.9484 29.6142 44.2286 29.6909 44.467 29.8451C44.7054 29.9992 44.8904 30.2232 44.9967 30.4864C45.1029 30.7497 45.1253 31.0393 45.0608 31.3158C44.9962 31.5922 44.8479 31.842 44.636 32.0309L39.761 36.8366L42.4647 43.0484C42.5828 43.3329 42.6088 43.6473 42.539 43.9473C42.4692 44.2473 42.3072 44.518 42.0757 44.7211C41.8441 44.9243 41.5548 45.0498 41.2482 45.0801C40.9417 45.1103 40.6334 45.0437 40.3666 44.8897L33.8247 41.2184L27.2866 44.8953C27.0198 45.0494 26.7115 45.1159 26.405 45.0857C26.0984 45.0555 25.8091 44.9299 25.5775 44.7268C25.346 44.5236 25.184 44.253 25.1142 43.9529C25.0444 43.6529 25.0704 43.3386 25.1885 43.0541L27.8941 36.8422L23.0191 32.0366C22.805 31.8493 22.6541 31.6002 22.5873 31.3237C22.5205 31.0472 22.541 30.7567 22.6461 30.4924C22.7512 30.228 22.9356 30.0027 23.1739 29.8474C23.4123 29.6921 23.6929 29.6145 23.9772 29.6253H29.6022L32.4972 23.3947C32.6252 23.1536 32.8165 22.9519 33.0505 22.8114C33.2846 22.671 33.5525 22.5971 33.8255 22.5977C34.0985 22.5982 34.3661 22.6733 34.5995 22.8147C34.833 22.9562 35.0235 23.1586 35.1504 23.4003Z" fill="#E5E9FF" stroke="#3C4884" stroke-width="2" stroke-linecap="round" stroke-linejoin="round"/>
  <path d="M8.53125 14.1562H28.2188" stroke="#3C4884" stroke-width="2" stroke-linecap="round" stroke-linejoin="round"/>
  <path d="M8.53125 22.5938H22.5938" stroke="#3C4884" stroke-width="2" stroke-linecap="round" stroke-linejoin="round"/>
  <path d="M8.53125 31.0312H15.5625" stroke="#3C4884" stroke-width="2" stroke-linecap="round" stroke-linejoin="round"/>
  <path d="M15.5625 39.4688H5.71875C4.97283 39.4688 4.25746 39.1724 3.73001 38.645C3.20257 38.1175 2.90625 37.4022 2.90625 36.6562V5.71875C2.90625 4.97283 3.20257 4.25746 3.73001 3.73001C4.25746 3.20257 4.97283 2.90625 5.71875 2.90625H25.6481C26.3935 2.90641 27.1084 3.20247 27.6356 3.72938L33.0206 9.11438C33.5475 9.64162 33.8436 10.3565 33.8438 11.1019V15.5625" stroke="#3C4884" stroke-width="2" stroke-linecap="round" stroke-linejoin="round"/>
</svg>